<?xml version="1.0" encoding="UTF-8"?>
<!DOCTYPE svg PUBLIC "-//W3C//DTD SVG 1.1//EN" "http://www.w3.org/Graphics/SVG/1.1/DTD/svg11.dtd">
<svg xmlns="http://www.w3.org/2000/svg" version="1.1" width="32px" height="32px" style="shape-rendering:geometricPrecision; text-rendering:geometricPrecision; image-rendering:optimizeQuality; fill-rule:evenodd; clip-rule:evenodd" xmlns:xlink="http://www.w3.org/1999/xlink">
<g><path style="opacity:0.969" fill="#17d6b7" d="M 9.5,-0.5 C 11.5,-0.5 13.5,-0.5 15.5,-0.5C 15.634,1.29152 15.3007,2.95819 14.5,4.5C 9.18555,6.40994 8.18555,9.74327 11.5,14.5C 10.9953,15.9185 9.99525,16.5852 8.5,16.5C 8.5,11.1667 8.5,5.83333 8.5,0.5C 9.16667,0.5 9.5,0.166667 9.5,-0.5 Z"/></g>
<g><path style="opacity:0.918" fill="#1abcdb" d="M 15.5,-0.5 C 17.5,-0.5 19.5,-0.5 21.5,-0.5C 22.1667,0.166667 22.8333,0.833333 23.5,1.5C 22.5128,6.30537 22.1795,11.3054 22.5,16.5C 21.0047,16.5852 20.0047,15.9185 19.5,14.5C 23.1206,8.46421 21.4539,5.13087 14.5,4.5C 15.3007,2.95819 15.634,1.29152 15.5,-0.5 Z"/></g>
<g><path style="opacity:0.949" fill="#0bb0e7" d="M 23.5,1.5 C 25.0269,1.42702 26.0269,2.09368 26.5,3.5C 26.9118,12.2964 26.2451,20.9631 24.5,29.5C 24.1667,29.5 23.8333,29.5 23.5,29.5C 22.1667,27.1667 22.1667,24.8333 23.5,22.5C 24.0915,25.0828 24.7582,25.0828 25.5,22.5C 24.5108,20.5061 23.5108,18.5061 22.5,16.5C 22.1795,11.3054 22.5128,6.30537 23.5,1.5 Z"/></g>
<g><path style="opacity:0.99" fill="#09e3a3" d="M 8.5,0.5 C 8.5,5.83333 8.5,11.1667 8.5,16.5C 7.0115,18.6451 6.0115,20.9785 5.5,23.5C 5.16667,24.8333 4.83333,26.1667 4.5,27.5C 3.83333,27.5 3.5,27.1667 3.5,26.5C 3.5,19.1667 3.5,11.8333 3.5,4.5C 4.57935,2.45703 6.24602,1.1237 8.5,0.5 Z"/></g>
<g><path style="opacity:0.942" fill="#01a5f4" d="M 26.5,3.5 C 28.6433,5.13072 30.31,7.13072 31.5,9.5C 31.5,13.5 31.5,17.5 31.5,21.5C 29.9125,24.7584 27.5791,27.4251 24.5,29.5C 26.2451,20.9631 26.9118,12.2964 26.5,3.5 Z"/></g>
<g><path style="opacity:0.934" fill="#00ee93" d="M 3.5,4.5 C 3.5,11.8333 3.5,19.1667 3.5,26.5C 1.92635,25.0158 0.593015,23.3492 -0.5,21.5C -0.5,17.5 -0.5,13.5 -0.5,9.5C 0.593015,7.65084 1.92635,5.98417 3.5,4.5 Z"/></g>
<g><path style="opacity:1" fill="#effbfb" d="M 14.5,4.5 C 21.4539,5.13087 23.1206,8.46421 19.5,14.5C 20.0047,15.9185 21.0047,16.5852 22.5,16.5C 23.5108,18.5061 24.5108,20.5061 25.5,22.5C 24.7582,25.0828 24.0915,25.0828 23.5,22.5C 23.2624,20.5956 22.2624,19.2623 20.5,18.5C 19.3646,16.7868 17.698,16.1201 15.5,16.5C 13.302,16.1201 11.6354,16.7868 10.5,18.5C 8.30851,19.8453 6.97518,21.8453 6.5,24.5C 5.89333,24.3764 5.55999,24.0431 5.5,23.5C 6.0115,20.9785 7.0115,18.6451 8.5,16.5C 9.99525,16.5852 10.9953,15.9185 11.5,14.5C 8.18555,9.74327 9.18555,6.40994 14.5,4.5 Z"/></g>
<g><path style="opacity:1" fill="#2ecccc" d="M 14.5,5.5 C 19.0119,5.86889 20.5119,8.20222 19,12.5C 15.1868,15.5886 12.6868,14.7552 11.5,10C 11.5572,7.79108 12.5572,6.29108 14.5,5.5 Z"/></g>
<g><path style="opacity:0.99" fill="#0ccebf" d="M 15.5,16.5 C 15.5,21.5 15.5,26.5 15.5,31.5C 13.8333,31.5 12.1667,31.5 10.5,31.5C 10.5,27.1667 10.5,22.8333 10.5,18.5C 11.6354,16.7868 13.302,16.1201 15.5,16.5 Z"/></g>
<g><path style="opacity:0.971" fill="#0dc2cf" d="M 15.5,16.5 C 17.698,16.1201 19.3646,16.7868 20.5,18.5C 19.5151,22.6344 19.1818,26.9677 19.5,31.5C 18.1667,31.5 16.8333,31.5 15.5,31.5C 15.5,26.5 15.5,21.5 15.5,16.5 Z"/></g>
<g><path style="opacity:0.978" fill="#10dbb0" d="M 10.5,18.5 C 10.5,22.8333 10.5,27.1667 10.5,31.5C 10.1667,31.5 9.83333,31.5 9.5,31.5C 7.65084,30.407 5.98417,29.0737 4.5,27.5C 4.83333,26.1667 5.16667,24.8333 5.5,23.5C 5.55999,24.0431 5.89333,24.3764 6.5,24.5C 6.97518,21.8453 8.30851,19.8453 10.5,18.5 Z"/></g>
<g><path style="opacity:0.995" fill="#0abada" d="M 20.5,18.5 C 22.2624,19.2623 23.2624,20.5956 23.5,22.5C 22.1667,24.8333 22.1667,27.1667 23.5,29.5C 22.8333,30.1667 22.1667,30.8333 21.5,31.5C 20.8333,31.5 20.1667,31.5 19.5,31.5C 19.1818,26.9677 19.5151,22.6344 20.5,18.5 Z"/></g>
</svg>
